<?xml version="1.0" encoding="UTF-8" standalone="no"?>
<svg
   version="1.2"
   width="118"
   height="128"
   viewBox="41 26 118 128"
   id="svg451"
   sodipodi:docname="aB.svg"
   inkscape:version="1.2 (dc2aedaf03, 2022-05-15)"
   xmlns:inkscape="http://www.inkscape.org/namespaces/inkscape"
   xmlns:sodipodi="http://sodipodi.sourceforge.net/DTD/sodipodi-0.dtd"
   xmlns="http://www.w3.org/2000/svg"
   xmlns:svg="http://www.w3.org/2000/svg">
  <defs
     id="defs455" />
  <sodipodi:namedview
     id="namedview453"
     pagecolor="#505050"
     bordercolor="#eeeeee"
     borderopacity="1"
     inkscape:showpageshadow="0"
     inkscape:pageopacity="0"
     inkscape:pagecheckerboard="0"
     inkscape:deskcolor="#505050"
     showgrid="false"
     inkscape:zoom="6.5390625"
     inkscape:cx="59.029869"
     inkscape:cy="64.076464"
     inkscape:window-width="1920"
     inkscape:window-height="1017"
     inkscape:window-x="-8"
     inkscape:window-y="-8"
     inkscape:window-maximized="1"
     inkscape:current-layer="svg451" />
  <path
     d="M 155,150 C 155,50 115,30 100,30 85,30 45,50 45,150"
     stroke-width="4"
     stroke="black"
     fill="rgb(128,224,255)"
     fill-opacity="1"
     id="path447" />
  <g
     aria-label="B"
     id="text449"
     style="font-weight:bold;font-size:45px;font-family:Arial;text-anchor:middle;stroke-width:4">
    <path
       d="m 87.047119,82.788086 h 12.875977 q 3.823244,0 5.690914,0.32959 1.88965,0.307617 3.36182,1.318359 1.49414,1.010742 2.48291,2.702637 0.98877,1.669922 0.98877,3.757324 0,2.263184 -1.23047,4.152832 -1.2085,1.889649 -3.2959,2.834473 2.94434,0.856933 4.52637,2.922359 1.58203,2.06543 1.58203,4.85596 0,2.19727 -1.03271,4.28467 -1.01075,2.06543 -2.79053,3.31787 -1.75781,1.23047 -4.35059,1.51611 -1.62597,0.17578 -7.844235,0.21973 H 87.047119 Z m 6.503906,5.361328 v 7.448731 h 4.262696 q 3.801269,0 4.724119,-0.109864 1.66992,-0.197754 2.61475,-1.142578 0.96679,-0.966797 0.96679,-2.526855 0,-1.494141 -0.83496,-2.416993 -0.81298,-0.944824 -2.43896,-1.142578 -0.9668,-0.109863 -5.559083,-0.109863 z m 0,12.810056 v 8.61328 h 6.020508 q 3.515627,0 4.460447,-0.19775 1.4502,-0.26367 2.35108,-1.27441 0.92285,-1.03272 0.92285,-2.74659 0,-1.45019 -0.70313,-2.46093 -0.70312,-1.01075 -2.04345,-1.47217 -1.31836,-0.46143 -5.75684,-0.46143 z"
       id="path2098" />
  </g>
</svg>
