<?xml version="1.0" encoding="UTF-8" standalone="no"?>
<svg
   version="1.2"
   width="118"
   height="128"
   viewBox="41 26 118 128"
   id="svg10"
   sodipodi:docname="aUH.svg"
   inkscape:version="1.2 (dc2aedaf03, 2022-05-15)"
   xmlns:inkscape="http://www.inkscape.org/namespaces/inkscape"
   xmlns:sodipodi="http://sodipodi.sourceforge.net/DTD/sodipodi-0.dtd"
   xmlns="http://www.w3.org/2000/svg"
   xmlns:svg="http://www.w3.org/2000/svg">
  <defs
     id="defs14" />
  <sodipodi:namedview
     id="namedview12"
     pagecolor="#505050"
     bordercolor="#eeeeee"
     borderopacity="1"
     inkscape:showpageshadow="0"
     inkscape:pageopacity="0"
     inkscape:pagecheckerboard="0"
     inkscape:deskcolor="#505050"
     showgrid="false"
     inkscape:zoom="6.5390625"
     inkscape:cx="59.029869"
     inkscape:cy="64.076464"
     inkscape:window-width="1920"
     inkscape:window-height="1017"
     inkscape:window-x="-8"
     inkscape:window-y="-8"
     inkscape:window-maximized="1"
     inkscape:current-layer="svg10" />
  <path
     d="M 155,150 C 155,50 115,30 100,30 85,30 45,50 45,150"
     stroke-width="4"
     stroke="black"
     fill="rgb(128,224,255)"
     fill-opacity="1"
     id="path2" />
  <path
     d="M60,85 l40,15 40,-15 0,30 -40,-15 -40,15 z"
     stroke-width="4"
     stroke="black"
     fill="black"
     id="path4" />
  <g
     aria-label="U"
     id="text6"
     style="font-weight:bold;font-size:30px;font-family:Arial;text-anchor:middle;stroke-width:4">
    <path
       d="m 91.320801,55.525391 h 4.335937 V 67.15625 q 0,2.768555 0.161133,3.588867 0.27832,1.31836 1.318359,2.124024 1.054688,0.791015 2.87109,0.791015 1.84571,0 2.78321,-0.74707 0.9375,-0.761719 1.12793,-1.860352 0.19043,-1.098632 0.19043,-3.647461 V 55.525391 h 4.33593 v 11.279296 q 0,3.867188 -0.35156,5.463868 -0.35156,1.596679 -1.30371,2.695312 -0.9375,1.098633 -2.51953,1.757813 -1.58203,0.644531 -4.13086,0.644531 -3.076172,0 -4.672851,-0.703125 -1.582032,-0.717774 -2.504883,-1.845703 -0.922852,-1.142578 -1.215821,-2.387696 -0.424804,-1.845703 -0.424804,-5.449218 z"
       id="path2083" />
  </g>
  <g
     aria-label="H"
     id="text8"
     style="font-weight:bold;font-size:30px;font-family:Arial;text-anchor:middle;stroke-width:4">
    <path
       d="m 91.364746,145 v -21.47461 h 4.335938 v 8.45215 h 8.496096 v -8.45215 h 4.33593 V 145 h -4.33593 v -9.38965 H 95.700684 V 145 Z"
       id="path2086" />
  </g>
</svg>
