<?xml version="1.0" encoding="UTF-8" standalone="no"?>
<svg
   version="1.2"
   width="88"
   height="168"
   viewBox="56 -64 88 168"
   id="svg437"
   sodipodi:docname="bSpawn.svg"
   inkscape:version="1.2 (dc2aedaf03, 2022-05-15)"
   xmlns:inkscape="http://www.inkscape.org/namespaces/inkscape"
   xmlns:sodipodi="http://sodipodi.sourceforge.net/DTD/sodipodi-0.dtd"
   xmlns="http://www.w3.org/2000/svg"
   xmlns:svg="http://www.w3.org/2000/svg">
  <defs
     id="defs441" />
  <sodipodi:namedview
     id="namedview439"
     pagecolor="#505050"
     bordercolor="#eeeeee"
     borderopacity="1"
     inkscape:showpageshadow="0"
     inkscape:pageopacity="0"
     inkscape:pagecheckerboard="0"
     inkscape:deskcolor="#505050"
     showgrid="false"
     inkscape:zoom="4.9821429"
     inkscape:cx="43.956989"
     inkscape:cy="83.899642"
     inkscape:window-width="1920"
     inkscape:window-height="1017"
     inkscape:window-x="-8"
     inkscape:window-y="-8"
     inkscape:window-maximized="1"
     inkscape:current-layer="svg437" />
  <path
     d="m 60,45 80,0 m -40,55 -40,-55 0,-105 80,0 0,105 z"
     stroke-width="4"
     stroke="black"
     fill="none"
     id="path433"
     style="fill:none;stroke:#ffffff" />
  <g
     aria-label="SP"
     id="text435"
     style="font-weight:bold;font-size:35px;font-family:Arial;text-anchor:middle;fill:#ffffff;stroke-width:4">
    <path
       d="m 77.919922,-28.151855 4.921875,-0.478516 q 0.444336,2.478027 1.794433,3.640137 1.367188,1.162109 3.674317,1.162109 2.443848,0 3.674316,-1.025391 1.247559,-1.04248 1.247559,-2.426757 0,-0.888672 -0.529785,-1.503907 -0.512696,-0.632324 -1.811524,-1.09375 -0.888672,-0.307617 -4.050293,-1.09375 -4.067383,-1.0083 -5.708008,-2.478027 -2.307128,-2.067871 -2.307128,-5.041504 0,-1.914062 1.07666,-3.571777 1.09375,-1.674805 3.127441,-2.546387 2.050781,-0.871582 4.938965,-0.871582 4.716797,0 7.092285,2.067871 2.392578,2.067871 2.512207,5.52002 l -5.058594,0.222168 q -0.324707,-1.931153 -1.401367,-2.768555 -1.05957,-0.854492 -3.195801,-0.854492 -2.204589,0 -3.452148,0.905761 -0.803223,0.581055 -0.803223,1.555176 0,0.888672 0.751953,1.520996 0.957032,0.803223 4.648438,1.674805 3.691406,0.871582 5.45166,1.811523 1.777344,0.922852 2.768555,2.546387 1.008301,1.606445 1.008301,3.981934 0,2.15332 -1.196289,4.033203 -1.19629,1.879883 -3.38379,2.802734 -2.1875,0.905762 -5.45166,0.905762 -4.750976,0 -7.297363,-2.1875 -2.546387,-2.20459 -3.041992,-6.408691 z"
       id="path1169" />
    <path
       d="m 102.54639,-20 v -25.053711 h 8.11767 q 4.61426,0 6.01563,0.375977 2.15332,0.563964 3.60595,2.460937 1.45264,1.879883 1.45264,4.870606 0,2.307129 -0.8374,3.879394 -0.8374,1.572266 -2.13623,2.478027 -1.28174,0.888672 -2.61475,1.1792 -1.81152,0.358886 -5.24658,0.358886 h -3.29834 V -20 Z m 5.05859,-20.81543 v 7.109375 h 2.76856 q 2.99072,0 3.99902,-0.393066 1.0083,-0.393066 1.57226,-1.230469 0.58106,-0.837402 0.58106,-1.948242 0,-1.367188 -0.80322,-2.255859 -0.80323,-0.888672 -2.0337,-1.11084 -0.90576,-0.170899 -3.64013,-0.170899 z"
       id="path1171" />
  </g>
</svg>
