<?xml version="1.0" encoding="UTF-8" standalone="no"?>
<svg
   version="1.2"
   width="158"
   height="108"
   viewBox="21 46 158 108"
   id="svg6"
   sodipodi:docname="10031000001211000000.svg"
   inkscape:version="1.1 (c68e22c387, 2021-05-23)"
   xmlns:inkscape="http://www.inkscape.org/namespaces/inkscape"
   xmlns:sodipodi="http://sodipodi.sourceforge.net/DTD/sodipodi-0.dtd"
   xmlns="http://www.w3.org/2000/svg"
   xmlns:svg="http://www.w3.org/2000/svg">
  <defs
     id="defs10">
    <clipPath
       clipPathUnits="userSpaceOnUse"
       id="clipPath838">
      <path
         d="M 0,69.517 H 77 V 0 H 0 Z"
         id="path836" />
    </clipPath>
    <clipPath
       clipPathUnits="userSpaceOnUse"
       id="clipPath856">
      <path
         d="M 0,69.517 H 77 V 0 H 0 Z"
         id="path854" />
    </clipPath>
    <clipPath
       clipPathUnits="userSpaceOnUse"
       id="clipPath904">
      <path
         d="M 0,67.623 H 77 V 0 H 0 Z"
         id="path902" />
    </clipPath>
    <clipPath
       clipPathUnits="userSpaceOnUse"
       id="clipPath916">
      <path
         d="M 0,67.623 H 77 V 0 H 0 Z"
         id="path914" />
    </clipPath>
    <clipPath
       clipPathUnits="userSpaceOnUse"
       id="clipPath955">
      <path
         d="M 0,67.623 H 77 V 0 H 0 Z"
         id="path953" />
    </clipPath>
    <clipPath
       clipPathUnits="userSpaceOnUse"
       id="clipPath967">
      <path
         d="M 0,67.623 H 77 V 0 H 0 Z"
         id="path965" />
    </clipPath>
    <clipPath
       clipPathUnits="userSpaceOnUse"
       id="clipPath1086">
      <path
         d="M 0,67.623 H 77 V 0 H 0 Z"
         id="path1084" />
    </clipPath>
    <clipPath
       clipPathUnits="userSpaceOnUse"
       id="clipPath1098">
      <path
         d="M 0,67.623 H 77 V 0 H 0 Z"
         id="path1096" />
    </clipPath>
    <clipPath
       clipPathUnits="userSpaceOnUse"
       id="clipPath1419">
      <path
         d="M 0,67.623 H 77 V 0 H 0 Z"
         id="path1417" />
    </clipPath>
    <clipPath
       clipPathUnits="userSpaceOnUse"
       id="clipPath1431">
      <path
         d="M 0,67.623 H 77 V 0 H 0 Z"
         id="path1429" />
    </clipPath>
    <clipPath
       clipPathUnits="userSpaceOnUse"
       id="clipPath1505">
      <path
         d="M 0,67.623 H 77 V 0 H 0 Z"
         id="path1503" />
    </clipPath>
    <clipPath
       clipPathUnits="userSpaceOnUse"
       id="clipPath1517">
      <path
         d="M 0,67.623 H 77 V 0 H 0 Z"
         id="path1515" />
    </clipPath>
    <clipPath
       clipPathUnits="userSpaceOnUse"
       id="clipPath1636">
      <path
         d="M 0,67.623 H 77 V 0 H 0 Z"
         id="path1634" />
    </clipPath>
    <clipPath
       clipPathUnits="userSpaceOnUse"
       id="clipPath1648">
      <path
         d="M 0,67.623 H 77 V 0 H 0 Z"
         id="path1646" />
    </clipPath>
    <clipPath
       clipPathUnits="userSpaceOnUse"
       id="clipPath1898">
      <path
         d="M 0,67.623 H 77 V 0 H 0 Z"
         id="path1896" />
    </clipPath>
    <clipPath
       clipPathUnits="userSpaceOnUse"
       id="clipPath1910">
      <path
         d="M 0,67.623 H 77 V 0 H 0 Z"
         id="path1908" />
    </clipPath>
    <clipPath
       clipPathUnits="userSpaceOnUse"
       id="clipPath2084">
      <path
         d="M 0,67.623 H 77 V 0 H 0 Z"
         id="path2082" />
    </clipPath>
    <clipPath
       clipPathUnits="userSpaceOnUse"
       id="clipPath2096">
      <path
         d="M 0,67.623 H 77 V 0 H 0 Z"
         id="path2094" />
    </clipPath>
    <clipPath
       clipPathUnits="userSpaceOnUse"
       id="clipPath2202">
      <path
         d="M 0,69.517 H 77 V 0 H 0 Z"
         id="path2200" />
    </clipPath>
    <clipPath
       clipPathUnits="userSpaceOnUse"
       id="clipPath2220">
      <path
         d="M 0,69.517 H 77 V 0 H 0 Z"
         id="path2218" />
    </clipPath>
    <clipPath
       clipPathUnits="userSpaceOnUse"
       id="clipPath2428">
      <path
         d="M 0,72.028 H 77 V 0 H 0 Z"
         id="path2426" />
    </clipPath>
    <clipPath
       clipPathUnits="userSpaceOnUse"
       id="clipPath2444">
      <path
         d="M 0,72.028 H 77 V 0 H 0 Z"
         id="path2442" />
    </clipPath>
    <clipPath
       clipPathUnits="userSpaceOnUse"
       id="clipPath2626">
      <path
         d="M 0,72.028 H 77 V 0 H 0 Z"
         id="path2624" />
    </clipPath>
    <clipPath
       clipPathUnits="userSpaceOnUse"
       id="clipPath2642">
      <path
         d="M 0,72.028 H 77 V 0 H 0 Z"
         id="path2640" />
    </clipPath>
    <clipPath
       clipPathUnits="userSpaceOnUse"
       id="clipPath2658">
      <path
         d="M 0,72.028 H 77 V 0 H 0 Z"
         id="path2656" />
    </clipPath>
    <clipPath
       clipPathUnits="userSpaceOnUse"
       id="clipPath2860">
      <path
         d="M 0,72.028 H 77 V 0 H 0 Z"
         id="path2858" />
    </clipPath>
    <clipPath
       clipPathUnits="userSpaceOnUse"
       id="clipPath2876">
      <path
         d="M 0,72.028 H 77 V 0 H 0 Z"
         id="path2874" />
    </clipPath>
    <clipPath
       clipPathUnits="userSpaceOnUse"
       id="clipPath2892">
      <path
         d="M 0,72.028 H 77 V 0 H 0 Z"
         id="path2890" />
    </clipPath>
    <clipPath
       clipPathUnits="userSpaceOnUse"
       id="clipPath2908">
      <path
         d="M 0,72.028 H 77 V 0 H 0 Z"
         id="path2906" />
    </clipPath>
    <clipPath
       clipPathUnits="userSpaceOnUse"
       id="clipPath3052">
      <path
         d="M 0,71.567 H 77 V 0 H 0 Z"
         id="path3050" />
    </clipPath>
    <clipPath
       clipPathUnits="userSpaceOnUse"
       id="clipPath3068">
      <path
         d="M 0,71.567 H 77 V 0 H 0 Z"
         id="path3066" />
    </clipPath>
    <clipPath
       clipPathUnits="userSpaceOnUse"
       id="clipPath3084">
      <path
         d="M 0,71.567 H 77 V 0 H 0 Z"
         id="path3082" />
    </clipPath>
    <clipPath
       clipPathUnits="userSpaceOnUse"
       id="clipPath3300">
      <path
         d="M 0,71.567 H 77 V 0 H 0 Z"
         id="path3298" />
    </clipPath>
    <clipPath
       clipPathUnits="userSpaceOnUse"
       id="clipPath3316">
      <path
         d="M 0,71.567 H 77 V 0 H 0 Z"
         id="path3314" />
    </clipPath>
    <clipPath
       clipPathUnits="userSpaceOnUse"
       id="clipPath3332">
      <path
         d="M 0,71.567 H 77 V 0 H 0 Z"
         id="path3330" />
    </clipPath>
    <clipPath
       clipPathUnits="userSpaceOnUse"
       id="clipPath3348">
      <path
         d="M 0,71.567 H 77 V 0 H 0 Z"
         id="path3346" />
    </clipPath>
    <clipPath
       clipPathUnits="userSpaceOnUse"
       id="clipPath3364">
      <path
         d="M 0,71.567 H 77 V 0 H 0 Z"
         id="path3362" />
    </clipPath>
    <clipPath
       clipPathUnits="userSpaceOnUse"
       id="clipPath3698">
      <path
         d="M 0,71.567 H 77 V 0 H 0 Z"
         id="path3696" />
    </clipPath>
    <clipPath
       clipPathUnits="userSpaceOnUse"
       id="clipPath3714">
      <path
         d="M 0,71.567 H 77 V 0 H 0 Z"
         id="path3712" />
    </clipPath>
    <clipPath
       clipPathUnits="userSpaceOnUse"
       id="clipPath3730">
      <path
         d="M 0,71.567 H 77 V 0 H 0 Z"
         id="path3728" />
    </clipPath>
    <clipPath
       clipPathUnits="userSpaceOnUse"
       id="clipPath3746">
      <path
         d="M 0,71.567 H 77 V 0 H 0 Z"
         id="path3744" />
    </clipPath>
    <clipPath
       clipPathUnits="userSpaceOnUse"
       id="clipPath3762">
      <path
         d="M 0,71.567 H 77 V 0 H 0 Z"
         id="path3760" />
    </clipPath>
    <clipPath
       clipPathUnits="userSpaceOnUse"
       id="clipPath3778">
      <path
         d="M 0,71.567 H 77 V 0 H 0 Z"
         id="path3776" />
    </clipPath>
    <clipPath
       clipPathUnits="userSpaceOnUse"
       id="clipPath3794">
      <path
         d="M 0,71.567 H 77 V 0 H 0 Z"
         id="path3792" />
    </clipPath>
    <clipPath
       clipPathUnits="userSpaceOnUse"
       id="clipPath4090">
      <path
         d="M 0,71.567 H 77 V 0 H 0 Z"
         id="path4088" />
    </clipPath>
    <clipPath
       clipPathUnits="userSpaceOnUse"
       id="clipPath4106">
      <path
         d="M 0,71.567 H 77 V 0 H 0 Z"
         id="path4104" />
    </clipPath>
    <clipPath
       clipPathUnits="userSpaceOnUse"
       id="clipPath4122">
      <path
         d="M 0,71.567 H 77 V 0 H 0 Z"
         id="path4120" />
    </clipPath>
    <clipPath
       clipPathUnits="userSpaceOnUse"
       id="clipPath4138">
      <path
         d="M 0,71.567 H 77 V 0 H 0 Z"
         id="path4136" />
    </clipPath>
    <clipPath
       clipPathUnits="userSpaceOnUse"
       id="clipPath4154">
      <path
         d="M 0,71.567 H 77 V 0 H 0 Z"
         id="path4152" />
    </clipPath>
    <clipPath
       clipPathUnits="userSpaceOnUse"
       id="clipPath4170">
      <path
         d="M 0,71.567 H 77 V 0 H 0 Z"
         id="path4168" />
    </clipPath>
    <clipPath
       clipPathUnits="userSpaceOnUse"
       id="clipPath4186">
      <path
         d="M 0,71.567 H 77 V 0 H 0 Z"
         id="path4184" />
    </clipPath>
    <clipPath
       clipPathUnits="userSpaceOnUse"
       id="clipPath4202">
      <path
         d="M 0,71.567 H 77 V 0 H 0 Z"
         id="path4200" />
    </clipPath>
    <clipPath
       clipPathUnits="userSpaceOnUse"
       id="clipPath4218">
      <path
         d="M 0,71.567 H 77 V 0 H 0 Z"
         id="path4216" />
    </clipPath>
    <clipPath
       clipPathUnits="userSpaceOnUse"
       id="clipPath4480">
      <path
         d="M 0,71.567 H 77 V 0 H 0 Z"
         id="path4478" />
    </clipPath>
    <clipPath
       clipPathUnits="userSpaceOnUse"
       id="clipPath4496">
      <path
         d="M 0,71.567 H 77 V 0 H 0 Z"
         id="path4494" />
    </clipPath>
    <clipPath
       clipPathUnits="userSpaceOnUse"
       id="clipPath4512">
      <path
         d="M 0,71.567 H 77 V 0 H 0 Z"
         id="path4510" />
    </clipPath>
    <clipPath
       clipPathUnits="userSpaceOnUse"
       id="clipPath4528">
      <path
         d="M 0,71.567 H 77 V 0 H 0 Z"
         id="path4526" />
    </clipPath>
    <clipPath
       clipPathUnits="userSpaceOnUse"
       id="clipPath4544">
      <path
         d="M 0,71.567 H 77 V 0 H 0 Z"
         id="path4542" />
    </clipPath>
    <clipPath
       clipPathUnits="userSpaceOnUse"
       id="clipPath4560">
      <path
         d="M 0,71.567 H 77 V 0 H 0 Z"
         id="path4558" />
    </clipPath>
    <clipPath
       clipPathUnits="userSpaceOnUse"
       id="clipPath4576">
      <path
         d="M 0,71.567 H 77 V 0 H 0 Z"
         id="path4574" />
    </clipPath>
    <clipPath
       clipPathUnits="userSpaceOnUse"
       id="clipPath4592">
      <path
         d="M 0,71.567 H 77 V 0 H 0 Z"
         id="path4590" />
    </clipPath>
    <clipPath
       clipPathUnits="userSpaceOnUse"
       id="clipPath4608">
      <path
         d="M 0,71.567 H 77 V 0 H 0 Z"
         id="path4606" />
    </clipPath>
    <clipPath
       clipPathUnits="userSpaceOnUse"
       id="clipPath4624">
      <path
         d="M 0,71.567 H 77 V 0 H 0 Z"
         id="path4622" />
    </clipPath>
    <clipPath
       clipPathUnits="userSpaceOnUse"
       id="clipPath4640">
      <path
         d="M 0,71.567 H 77 V 0 H 0 Z"
         id="path4638" />
    </clipPath>
    <clipPath
       clipPathUnits="userSpaceOnUse"
       id="clipPath5112">
      <path
         d="M 0,71.567 H 80.237 V 0 H 0 Z"
         id="path5110" />
    </clipPath>
    <clipPath
       clipPathUnits="userSpaceOnUse"
       id="clipPath5128">
      <path
         d="M 0,71.567 H 80.237 V 0 H 0 Z"
         id="path5126" />
    </clipPath>
    <clipPath
       clipPathUnits="userSpaceOnUse"
       id="clipPath5144">
      <path
         d="M 0,71.567 H 80.237 V 0 H 0 Z"
         id="path5142" />
    </clipPath>
    <clipPath
       clipPathUnits="userSpaceOnUse"
       id="clipPath5160">
      <path
         d="M 0,71.567 H 80.237 V 0 H 0 Z"
         id="path5158" />
    </clipPath>
    <clipPath
       clipPathUnits="userSpaceOnUse"
       id="clipPath5176">
      <path
         d="M 0,71.567 H 80.237 V 0 H 0 Z"
         id="path5174" />
    </clipPath>
    <clipPath
       clipPathUnits="userSpaceOnUse"
       id="clipPath5192">
      <path
         d="M 0,71.567 H 80.237 V 0 H 0 Z"
         id="path5190" />
    </clipPath>
    <clipPath
       clipPathUnits="userSpaceOnUse"
       id="clipPath5208">
      <path
         d="M 0,71.567 H 80.237 V 0 H 0 Z"
         id="path5206" />
    </clipPath>
    <clipPath
       clipPathUnits="userSpaceOnUse"
       id="clipPath5224">
      <path
         d="M 0,71.567 H 80.237 V 0 H 0 Z"
         id="path5222" />
    </clipPath>
    <clipPath
       clipPathUnits="userSpaceOnUse"
       id="clipPath5240">
      <path
         d="M 0,71.567 H 80.237 V 0 H 0 Z"
         id="path5238" />
    </clipPath>
    <clipPath
       clipPathUnits="userSpaceOnUse"
       id="clipPath5256">
      <path
         d="M 0,71.567 H 80.237 V 0 H 0 Z"
         id="path5254" />
    </clipPath>
    <clipPath
       clipPathUnits="userSpaceOnUse"
       id="clipPath5272">
      <path
         d="M 0,71.567 H 80.237 V 0 H 0 Z"
         id="path5270" />
    </clipPath>
    <clipPath
       clipPathUnits="userSpaceOnUse"
       id="clipPath5288">
      <path
         d="M 0,71.567 H 80.237 V 0 H 0 Z"
         id="path5286" />
    </clipPath>
    <clipPath
       clipPathUnits="userSpaceOnUse"
       id="clipPath5304">
      <path
         d="M 0,71.567 H 80.237 V 0 H 0 Z"
         id="path5302" />
    </clipPath>
    <clipPath
       clipPathUnits="userSpaceOnUse"
       id="clipPath5750">
      <path
         d="M 0,69.517 H 77 V 0 H 0 Z"
         id="path5748" />
    </clipPath>
    <clipPath
       clipPathUnits="userSpaceOnUse"
       id="clipPath5768">
      <path
         d="M 0,69.517 H 77 V 0 H 0 Z"
         id="path5766" />
    </clipPath>
    <clipPath
       clipPathUnits="userSpaceOnUse"
       id="clipPath5904">
      <path
         d="M 0,71.567 H 77 V 0 H 0 Z"
         id="path5902" />
    </clipPath>
    <clipPath
       clipPathUnits="userSpaceOnUse"
       id="clipPath5920">
      <path
         d="M 0,71.567 H 77 V 0 H 0 Z"
         id="path5918" />
    </clipPath>
    <clipPath
       clipPathUnits="userSpaceOnUse"
       id="clipPath5936">
      <path
         d="M 0,71.567 H 77 V 0 H 0 Z"
         id="path5934" />
    </clipPath>
    <clipPath
       clipPathUnits="userSpaceOnUse"
       id="clipPath5952">
      <path
         d="M 0,71.567 H 77 V 0 H 0 Z"
         id="path5950" />
    </clipPath>
    <clipPath
       clipPathUnits="userSpaceOnUse"
       id="clipPath6300">
      <path
         d="M 0,71.567 H 77 V 0 H 0 Z"
         id="path6298" />
    </clipPath>
    <clipPath
       clipPathUnits="userSpaceOnUse"
       id="clipPath6316">
      <path
         d="M 0,71.567 H 77 V 0 H 0 Z"
         id="path6314" />
    </clipPath>
    <clipPath
       clipPathUnits="userSpaceOnUse"
       id="clipPath6640">
      <path
         d="M 0,72.028 H 77 V 0 H 0 Z"
         id="path6638" />
    </clipPath>
    <clipPath
       clipPathUnits="userSpaceOnUse"
       id="clipPath6656">
      <path
         d="M 0,72.028 H 77 V 0 H 0 Z"
         id="path6654" />
    </clipPath>
    <clipPath
       clipPathUnits="userSpaceOnUse"
       id="clipPath6672">
      <path
         d="M 0,72.028 H 77 V 0 H 0 Z"
         id="path6670" />
    </clipPath>
    <clipPath
       clipPathUnits="userSpaceOnUse"
       id="clipPath7016">
      <path
         d="M 0,72.028 H 77 V 0 H 0 Z"
         id="path7014" />
    </clipPath>
    <clipPath
       clipPathUnits="userSpaceOnUse"
       id="clipPath7032">
      <path
         d="M 0,72.028 H 77 V 0 H 0 Z"
         id="path7030" />
    </clipPath>
    <clipPath
       clipPathUnits="userSpaceOnUse"
       id="clipPath7366">
      <path
         d="M 0,72.028 H 77 V 0 H 0 Z"
         id="path7364" />
    </clipPath>
    <clipPath
       clipPathUnits="userSpaceOnUse"
       id="clipPath7684">
      <path
         d="M 0,67.623 H 77 V 0 H 0 Z"
         id="path7682" />
    </clipPath>
    <clipPath
       clipPathUnits="userSpaceOnUse"
       id="clipPath8221">
      <path
         d="M 0,72.028 H 77 V 0 H 0 Z"
         id="path8219" />
    </clipPath>
    <clipPath
       clipPathUnits="userSpaceOnUse"
       id="clipPath8543">
      <path
         d="M 0,67.623 H 77 V 0 H 0 Z"
         id="path8541" />
    </clipPath>
    <clipPath
       clipPathUnits="userSpaceOnUse"
       id="clipPath8791">
      <path
         d="M 0,67.623 H 77 V 0 H 0 Z"
         id="path8789" />
    </clipPath>
    <clipPath
       clipPathUnits="userSpaceOnUse"
       id="clipPath8996">
      <path
         d="M 0,67.623 H 77 V 0 H 0 Z"
         id="path8994" />
    </clipPath>
    <clipPath
       clipPathUnits="userSpaceOnUse"
       id="clipPath9236">
      <path
         d="M 0,69.517 H 77 V 0 H 0 Z"
         id="path9234" />
    </clipPath>
    <clipPath
       clipPathUnits="userSpaceOnUse"
       id="clipPath9256">
      <path
         d="M 0,69.517 H 77 V 0 H 0 Z"
         id="path9254" />
    </clipPath>
    <clipPath
       clipPathUnits="userSpaceOnUse"
       id="clipPath9682">
      <path
         d="M 0,69.517 H 77 V 0 H 0 Z"
         id="path9680" />
    </clipPath>
    <clipPath
       clipPathUnits="userSpaceOnUse"
       id="clipPath9702">
      <path
         d="M 0,69.517 H 77 V 0 H 0 Z"
         id="path9700" />
    </clipPath>
    <clipPath
       clipPathUnits="userSpaceOnUse"
       id="clipPath10056">
      <path
         d="M 0,67.623 H 77 V 0 H 0 Z"
         id="path10054" />
    </clipPath>
    <clipPath
       clipPathUnits="userSpaceOnUse"
       id="clipPath10171">
      <path
         d="M 0,51.331 H 77 V 0 H 0 Z"
         id="path10169" />
    </clipPath>
    <clipPath
       clipPathUnits="userSpaceOnUse"
       id="clipPath10187">
      <path
         d="M 0,51.331 H 77 V 0 H 0 Z"
         id="path10185" />
    </clipPath>
    <clipPath
       clipPathUnits="userSpaceOnUse"
       id="clipPath10199">
      <path
         d="M 33.367,10.2431 H 55.5271 V 2.30267 H 33.367 Z"
         id="path10197" />
    </clipPath>
    <clipPath
       clipPathUnits="userSpaceOnUse"
       id="clipPath10219">
      <path
         d="m 21.473,10.2516 h 7.7152 V 2.3367 H 21.473 Z"
         id="path10217" />
    </clipPath>
    <clipPath
       clipPathUnits="userSpaceOnUse"
       id="clipPath10595">
      <path
         d="M 0,51.331 H 77 V 0 H 0 Z"
         id="path10593" />
    </clipPath>
    <clipPath
       clipPathUnits="userSpaceOnUse"
       id="clipPath10611">
      <path
         d="M 0,51.331 H 77 V 0 H 0 Z"
         id="path10609" />
    </clipPath>
    <clipPath
       clipPathUnits="userSpaceOnUse"
       id="clipPath10623">
      <path
         d="M 27.42,10.2893 H 49.58 V 2.34885 H 27.42 Z"
         id="path10621" />
    </clipPath>
    <clipPath
       clipPathUnits="userSpaceOnUse"
       id="clipPath10987">
      <path
         d="M 0,51.331 H 77 V 0 H 0 Z"
         id="path10985" />
    </clipPath>
    <clipPath
       clipPathUnits="userSpaceOnUse"
       id="clipPath11005">
      <path
         d="M 0,51.331 H 77 V 0 H 0 Z"
         id="path11003" />
    </clipPath>
    <clipPath
       clipPathUnits="userSpaceOnUse"
       id="clipPath11021">
      <path
         d="M 24.9156,11.7516 H 52.0844 V 2.04707 H 24.9156 Z"
         id="path11019" />
    </clipPath>
    <clipPath
       clipPathUnits="userSpaceOnUse"
       id="clipPath11405">
      <path
         d="M 0,51.331 H 77 V 0 H 0 Z"
         id="path11403" />
    </clipPath>
    <clipPath
       clipPathUnits="userSpaceOnUse"
       id="clipPath11423">
      <path
         d="M 0,51.331 H 77 V 0 H 0 Z"
         id="path11421" />
    </clipPath>
    <clipPath
       clipPathUnits="userSpaceOnUse"
       id="clipPath11443">
      <path
         d="M 21.9926,10.7042 H 55.0442 V 2.04707 H 21.9926 Z"
         id="path11441" />
    </clipPath>
    <clipPath
       clipPathUnits="userSpaceOnUse"
       id="clipPath11845">
      <path
         d="M 0,69.517 H 77 V 0 H 0 Z"
         id="path11843" />
    </clipPath>
    <clipPath
       clipPathUnits="userSpaceOnUse"
       id="clipPath11863">
      <path
         d="M 0,69.517 H 77 V 0 H 0 Z"
         id="path11861" />
    </clipPath>
    <clipPath
       clipPathUnits="userSpaceOnUse"
       id="clipPath11991">
      <path
         d="M 0,51.331 H 77 V 0 H 0 Z"
         id="path11989" />
    </clipPath>
    <clipPath
       clipPathUnits="userSpaceOnUse"
       id="clipPath12009">
      <path
         d="M 0,51.331 H 77 V 0 H 0 Z"
         id="path12007" />
    </clipPath>
    <clipPath
       clipPathUnits="userSpaceOnUse"
       id="clipPath12377">
      <path
         d="M 0,51.331 H 77 V 0 H 0 Z"
         id="path12375" />
    </clipPath>
    <clipPath
       clipPathUnits="userSpaceOnUse"
       id="clipPath12395">
      <path
         d="M 0,51.331 H 77 V 0 H 0 Z"
         id="path12393" />
    </clipPath>
    <clipPath
       clipPathUnits="userSpaceOnUse"
       id="clipPath12767">
      <path
         d="M 0,51.77 H 77.863 V 0 H 0 Z"
         id="path12765" />
    </clipPath>
    <clipPath
       clipPathUnits="userSpaceOnUse"
       id="clipPath12779">
      <path
         d="m 1.432,1.44 h 75 v 49.331 h -75 z"
         id="path12777" />
    </clipPath>
    <clipPath
       clipPathUnits="userSpaceOnUse"
       id="clipPath12791">
      <path
         d="M 0,10.3058 H 77.8633 V 0 H 0 Z"
         id="path12789" />
    </clipPath>
    <clipPath
       clipPathUnits="userSpaceOnUse"
       id="clipPath13189">
      <path
         d="M 0,51.331 H 77 V 0 H 0 Z"
         id="path13187" />
    </clipPath>
    <clipPath
       clipPathUnits="userSpaceOnUse"
       id="clipPath13205">
      <path
         d="M 0,51.331 H 77 V 0 H 0 Z"
         id="path13203" />
    </clipPath>
    <clipPath
       clipPathUnits="userSpaceOnUse"
       id="clipPath13609">
      <path
         d="M 0,51.331 H 77 V 0 H 0 Z"
         id="path13607" />
    </clipPath>
    <clipPath
       clipPathUnits="userSpaceOnUse"
       id="clipPath13993">
      <path
         d="M 0,51.331 H 77 V 0 H 0 Z"
         id="path13991" />
    </clipPath>
    <clipPath
       clipPathUnits="userSpaceOnUse"
       id="clipPath14005">
      <path
         d="M 0,51.331 H 77 V 0 H 0 Z"
         id="path14003" />
    </clipPath>
    <clipPath
       clipPathUnits="userSpaceOnUse"
       id="clipPath14013">
      <path
         d="M 11.1396,37.4951 H 65.8604 V 13.8355 H 11.1396 Z"
         id="path14011" />
    </clipPath>
    <clipPath
       clipPathUnits="userSpaceOnUse"
       id="clipPath14516">
      <path
         d="M 0,55.331 H 81 V 0 H 0 Z"
         id="path14514" />
    </clipPath>
    <clipPath
       clipPathUnits="userSpaceOnUse"
       id="clipPath14538">
      <path
         d="M 0,55.331 H 81 V 0 H 0 Z"
         id="path14536" />
    </clipPath>
  </defs>
  <sodipodi:namedview
     id="namedview8"
     pagecolor="#ffffff"
     bordercolor="#666666"
     borderopacity="1.0"
     inkscape:pageshadow="2"
     inkscape:pageopacity="0.0"
     inkscape:pagecheckerboard="0"
     showgrid="false"
     inkscape:zoom="6.6962025"
     inkscape:cx="78.925331"
     inkscape:cy="53.985822"
     inkscape:window-width="1920"
     inkscape:window-height="1017"
     inkscape:window-x="-8"
     inkscape:window-y="-8"
     inkscape:window-maximized="1"
     inkscape:current-layer="svg6" />
  <path
     d="M25,50 l150,0 0,100 -150,0 z"
     stroke-width="4"
     stroke="black"
     fill="rgb(128,224,255)"
     fill-opacity="1"
     id="path2"
     style="fill:#5baa5b;fill-opacity:1" />
  <path
     d="M25,50 L175,150 M25,150 L175,50"
     stroke-width="4"
     stroke="black"
     fill="black"
     id="path4" />
</svg>
