<?xml version="1.0" encoding="UTF-8" standalone="no"?>
<svg
   version="1.2"
   width="128"
   height="128"
   viewBox="36 36 128 128"
   id="svg1843"
   sodipodi:docname="nBB.svg"
   inkscape:version="1.2 (dc2aedaf03, 2022-05-15)"
   xmlns:inkscape="http://www.inkscape.org/namespaces/inkscape"
   xmlns:sodipodi="http://sodipodi.sourceforge.net/DTD/sodipodi-0.dtd"
   xmlns="http://www.w3.org/2000/svg"
   xmlns:svg="http://www.w3.org/2000/svg">
  <defs
     id="defs1847" />
  <sodipodi:namedview
     id="namedview1845"
     pagecolor="#505050"
     bordercolor="#eeeeee"
     borderopacity="1"
     inkscape:showpageshadow="0"
     inkscape:pageopacity="0"
     inkscape:pagecheckerboard="0"
     inkscape:deskcolor="#505050"
     showgrid="false"
     inkscape:zoom="6.5390625"
     inkscape:cx="64.076464"
     inkscape:cy="64.076464"
     inkscape:window-width="1920"
     inkscape:window-height="1017"
     inkscape:window-x="-8"
     inkscape:window-y="-8"
     inkscape:window-maximized="1"
     inkscape:current-layer="svg1843" />
  <circle
     cx="100"
     cy="100"
     r="60"
     stroke-width="4"
     stroke="black"
     fill="rgb(0,94,171)"
     fill-opacity="1"
     id="circle1839" />
  <g
     aria-label="BB"
     id="text1841"
     style="font-weight:bold;font-size:42px;font-family:Arial;text-anchor:middle;stroke-width:4">
    <path
       d="m 72.745117,84.935547 h 12.017578 q 3.56836,0 5.311524,0.307617 1.763672,0.287109 3.137695,1.230469 1.394531,0.943359 2.317383,2.522461 0.922851,1.558593 0.922851,3.506836 0,2.112304 -1.148437,3.875976 -1.12793,1.763672 -3.076172,2.645508 2.748047,0.799805 4.224609,2.727536 1.476563,1.92774 1.476563,4.53223 0,2.05078 -0.963867,3.99902 -0.94336,1.92774 -2.604492,3.09668 -1.640625,1.14844 -4.060547,1.41504 Q 88.782227,114.95898 82.978516,115 H 72.745117 Z m 6.070313,5.003906 v 6.952149 h 3.978515 q 3.547852,0 4.40918,-0.10254 1.558594,-0.18457 2.44043,-1.066406 0.902343,-0.902344 0.902343,-2.358398 0,-1.394531 -0.779296,-2.25586 -0.75879,-0.881836 -2.276368,-1.066406 -0.902343,-0.102539 -5.188476,-0.102539 z m 0,11.956057 v 8.03906 h 5.61914 q 3.28125,0 4.163086,-0.18457 1.353516,-0.24609 2.194336,-1.18945 0.861328,-0.96387 0.861328,-2.56348 0,-1.35352 -0.65625,-2.29687 -0.65625,-0.94336 -1.907226,-1.37403 -1.230469,-0.43066 -5.373047,-0.43066 z"
       id="path2209" />
    <path
       d="m 103.07617,84.935547 h 12.01758 q 3.56836,0 5.31152,0.307617 1.76368,0.287109 3.1377,1.230469 1.39453,0.943359 2.31738,2.522461 0.92285,1.558593 0.92285,3.506836 0,2.112304 -1.14843,3.875976 -1.12793,1.763672 -3.07618,2.645508 2.74805,0.799805 4.22461,2.727536 1.47657,1.92774 1.47657,4.53223 0,2.05078 -0.96387,3.99902 -0.94336,1.92774 -2.60449,3.09668 -1.64063,1.14844 -4.06055,1.41504 -1.51758,0.16406 -7.32129,0.20508 h -10.2334 z m 6.07031,5.003906 v 6.952149 h 3.97852 q 3.54785,0 4.40918,-0.10254 1.55859,-0.18457 2.44043,-1.066406 0.90234,-0.902344 0.90234,-2.358398 0,-1.394531 -0.77929,-2.25586 -0.75879,-0.881836 -2.27637,-1.066406 -0.90234,-0.102539 -5.18848,-0.102539 z m 0,11.956057 v 8.03906 h 5.61915 q 3.28125,0 4.16308,-0.18457 1.35352,-0.24609 2.19434,-1.18945 0.86133,-0.96387 0.86133,-2.56348 0,-1.35352 -0.65625,-2.29687 -0.65625,-0.94336 -1.90723,-1.37403 -1.23047,-0.43066 -5.37305,-0.43066 z"
       id="path2211" />
  </g>
</svg>
