<?xml version="1.0" encoding="UTF-8" standalone="no"?>
<svg
   version="1.2"
   width="128"
   height="128"
   viewBox="36 36 128 128"
   id="svg1340"
   sodipodi:docname="nCG.svg"
   inkscape:version="1.2 (dc2aedaf03, 2022-05-15)"
   xmlns:inkscape="http://www.inkscape.org/namespaces/inkscape"
   xmlns:sodipodi="http://sodipodi.sourceforge.net/DTD/sodipodi-0.dtd"
   xmlns="http://www.w3.org/2000/svg"
   xmlns:svg="http://www.w3.org/2000/svg">
  <defs
     id="defs1344" />
  <sodipodi:namedview
     id="namedview1342"
     pagecolor="#505050"
     bordercolor="#eeeeee"
     borderopacity="1"
     inkscape:showpageshadow="0"
     inkscape:pageopacity="0"
     inkscape:pagecheckerboard="0"
     inkscape:deskcolor="#505050"
     showgrid="false"
     inkscape:zoom="6.5390625"
     inkscape:cx="64.076464"
     inkscape:cy="64.076464"
     inkscape:window-width="1920"
     inkscape:window-height="1017"
     inkscape:window-x="-8"
     inkscape:window-y="-8"
     inkscape:window-maximized="1"
     inkscape:current-layer="svg1340" />
  <circle
     cx="100"
     cy="100"
     r="60"
     stroke-width="4"
     stroke="black"
     fill="rgb(0,94,171)"
     fill-opacity="1"
     id="circle1336" />
  <g
     aria-label="CG"
     id="text1338"
     style="font-weight:bold;font-size:42px;font-family:Arial;text-anchor:middle;stroke-width:4">
    <path
       d="m 90.791992,103.94629 5.885742,1.86621 q -1.353515,4.92188 -4.511718,7.32129 -3.137696,2.37891 -7.977539,2.37891 -5.988282,0 -9.84375,-4.08106 -3.855469,-4.10156 -3.855469,-11.19726 0,-7.505864 3.875976,-11.648443 3.875977,-4.163085 10.192383,-4.163085 5.516602,0 8.961914,3.260742 2.050781,1.927734 3.076172,5.537109 L 90.586914,94.65625 Q 90.053711,92.318359 88.351562,90.964844 86.669922,89.611328 84.25,89.611328 q -3.342773,0 -5.43457,2.399414 -2.071289,2.399414 -2.071289,7.772461 0,5.701177 2.050781,8.121097 2.050781,2.41992 5.332031,2.41992 2.419922,0 4.163086,-1.53809 1.743164,-1.53808 2.501953,-4.83984 z"
       id="path2161" />
    <path
       d="m 115.87305,103.94629 v -5.065431 h 13.08398 v 11.976561 q -1.90723,1.84571 -5.53711,3.26074 -3.60937,1.39454 -7.32129,1.39454 -4.71679,0 -8.22363,-1.96875 -3.50684,-1.98926 -5.27051,-5.66016 -1.76367,-3.69141 -1.76367,-8.018556 0,-4.696289 1.96875,-8.346679 1.96875,-3.650391 5.7627,-5.598633 2.8916,-1.49707 7.19824,-1.49707 5.59863,0 8.73633,2.358398 3.1582,2.337891 4.06054,6.480469 l -6.02929,1.127929 q -0.63575,-2.214843 -2.39942,-3.486328 -1.74316,-1.291992 -4.36816,-1.291992 -3.97852,0 -6.33692,2.522461 -2.33789,2.522461 -2.33789,7.485352 0,5.352539 2.37891,8.039059 2.37891,2.66602 6.23437,2.66602 1.90723,0 3.81446,-0.73828 1.92773,-0.75879 3.30176,-1.8252 v -3.81445 z"
       id="path2163" />
  </g>
</svg>
