<?xml version="1.0" encoding="UTF-8" standalone="no"?>
<svg
   version="1.2"
   width="152"
   height="152"
   viewBox="24 24 152 152"
   id="svg316"
   sodipodi:docname="neDD.svg"
   inkscape:version="1.2 (dc2aedaf03, 2022-05-15)"
   xmlns:inkscape="http://www.inkscape.org/namespaces/inkscape"
   xmlns:sodipodi="http://sodipodi.sourceforge.net/DTD/sodipodi-0.dtd"
   xmlns="http://www.w3.org/2000/svg"
   xmlns:svg="http://www.w3.org/2000/svg">
  <defs
     id="defs320" />
  <sodipodi:namedview
     id="namedview318"
     pagecolor="#505050"
     bordercolor="#eeeeee"
     borderopacity="1"
     inkscape:showpageshadow="0"
     inkscape:pageopacity="0"
     inkscape:pagecheckerboard="0"
     inkscape:deskcolor="#505050"
     showgrid="false"
     inkscape:zoom="5.5065789"
     inkscape:cx="75.9092"
     inkscape:cy="76.0908"
     inkscape:window-width="1920"
     inkscape:window-height="1017"
     inkscape:window-x="-8"
     inkscape:window-y="-8"
     inkscape:window-maximized="1"
     inkscape:current-layer="svg316" />
  <path
     d="M100,28 L172,100 100,172 28,100 100,28 Z"
     stroke-width="4"
     stroke="black"
     fill="rgb(255,128,128)"
     fill-opacity="1"
     id="path312" />
  <g
     aria-label="DD"
     id="text314"
     style="font-weight:bold;font-size:42px;font-family:Arial;text-anchor:middle;stroke-width:4">
    <path
       d="m 72.704102,84.935547 h 11.094726 q 3.75293,0 5.72168,0.574219 2.645508,0.779296 4.532226,2.768554 1.886719,1.989258 2.871094,4.88086 0.984375,2.871093 0.984375,7.0957 0,3.71192 -0.922851,6.39844 -1.12793,3.28125 -3.219727,5.31152 Q 92.186523,113.50293 89.5,114.36426 87.490234,115 84.126953,115 H 72.704102 Z m 6.070312,5.085937 v 19.913086 h 4.532227 q 2.542968,0 3.670898,-0.28711 1.476563,-0.36914 2.44043,-1.25098 0.984375,-0.88183 1.599609,-2.8916 0.615234,-2.03027 0.615234,-5.516599 0,-3.486328 -0.615234,-5.352539 -0.615234,-1.866211 -1.722656,-2.912109 -1.107422,-1.045899 -2.80957,-1.415039 -1.271485,-0.28711 -4.983399,-0.28711 z"
       id="path1115" />
    <path
       d="m 103.03516,84.935547 h 11.09472 q 3.75293,0 5.72168,0.574219 2.64551,0.779296 4.53223,2.768554 1.88672,1.989258 2.87109,4.88086 0.98438,2.871093 0.98438,7.0957 0,3.71192 -0.92285,6.39844 -1.12793,3.28125 -3.21973,5.31152 -1.5791,1.53809 -4.26563,2.39942 Q 117.82129,115 114.45801,115 h -11.42285 z m 6.07031,5.085937 v 19.913086 h 4.53223 q 2.54296,0 3.67089,-0.28711 1.47657,-0.36914 2.44043,-1.25098 0.98438,-0.88183 1.59961,-2.8916 0.61524,-2.03027 0.61524,-5.516599 0,-3.486328 -0.61524,-5.352539 -0.61523,-1.866211 -1.72265,-2.912109 -1.10743,-1.045899 -2.80957,-1.415039 -1.27149,-0.28711 -4.9834,-0.28711 z"
       id="path1117" />
  </g>
</svg>
