<?xml version="1.0" encoding="UTF-8" standalone="no"?>
<svg
   version="1.2"
   width="152"
   height="152"
   viewBox="24 24 152 152"
   id="svg570"
   sodipodi:docname="neFS.svg"
   inkscape:version="1.2 (dc2aedaf03, 2022-05-15)"
   xmlns:inkscape="http://www.inkscape.org/namespaces/inkscape"
   xmlns:sodipodi="http://sodipodi.sourceforge.net/DTD/sodipodi-0.dtd"
   xmlns="http://www.w3.org/2000/svg"
   xmlns:svg="http://www.w3.org/2000/svg">
  <defs
     id="defs574" />
  <sodipodi:namedview
     id="namedview572"
     pagecolor="#505050"
     bordercolor="#eeeeee"
     borderopacity="1"
     inkscape:showpageshadow="0"
     inkscape:pageopacity="0"
     inkscape:pagecheckerboard="0"
     inkscape:deskcolor="#505050"
     showgrid="false"
     inkscape:zoom="5.5065789"
     inkscape:cx="75.9092"
     inkscape:cy="76.0908"
     inkscape:window-width="1920"
     inkscape:window-height="1017"
     inkscape:window-x="-8"
     inkscape:window-y="-8"
     inkscape:window-maximized="1"
     inkscape:current-layer="svg570" />
  <path
     d="M100,28 L172,100 100,172 28,100 100,28 Z"
     stroke-width="4"
     stroke="black"
     fill="rgb(255,128,128)"
     fill-opacity="1"
     id="path566" />
  <g
     aria-label="FS"
     id="text568"
     style="font-weight:bold;font-size:42px;font-family:Arial;text-anchor:middle;stroke-width:4">
    <path
       d="M 76.262207,115 V 84.935547 h 20.610352 v 5.085937 H 82.33252 v 7.116211 h 12.550781 v 5.085935 H 82.33252 V 115 Z"
       id="path1091" />
    <path
       d="m 100.33838,105.21777 5.90625,-0.57422 q 0.5332,2.97364 2.15332,4.36817 1.64062,1.39453 4.40918,1.39453 2.93262,0 4.40918,-1.23047 1.49707,-1.25098 1.49707,-2.91211 0,-1.0664 -0.63574,-1.80469 -0.61524,-0.75878 -2.17383,-1.3125 -1.06641,-0.36914 -4.86035,-1.3125 -4.88086,-1.20996 -6.84961,-2.973628 -2.76856,-2.481446 -2.76856,-6.049805 0,-2.296875 1.292,-4.286133 1.3125,-2.009766 3.75292,-3.055664 2.46094,-1.045898 5.92676,-1.045898 5.66016,0 8.51074,2.481445 2.8711,2.481445 3.01465,6.624023 l -6.07031,0.266602 q -0.38965,-2.317383 -1.68164,-3.322266 -1.27148,-1.02539 -3.83496,-1.02539 -2.64551,0 -4.14258,1.086914 -0.96387,0.697265 -0.96387,1.866211 0,1.066406 0.90235,1.825195 1.14844,0.963867 5.57812,2.009766 4.42969,1.045898 6.54199,2.173828 2.13282,1.107422 3.32227,3.05566 1.20996,1.92774 1.20996,4.77832 0,2.58399 -1.43555,4.83985 -1.43554,2.25586 -4.06054,3.36328 -2.625,1.08691 -6.54199,1.08691 -5.70118,0 -8.75684,-2.625 -3.05566,-2.6455 -3.65039,-7.69043 z"
       id="path1093" />
  </g>
</svg>
