<?xml version="1.0" encoding="UTF-8" standalone="no"?>
<svg
   version="1.2"
   width="128"
   height="128"
   viewBox="36 36 128 128"
   id="svg1716"
   sodipodi:docname="nPC.svg"
   inkscape:version="1.2 (dc2aedaf03, 2022-05-15)"
   xmlns:inkscape="http://www.inkscape.org/namespaces/inkscape"
   xmlns:sodipodi="http://sodipodi.sourceforge.net/DTD/sodipodi-0.dtd"
   xmlns="http://www.w3.org/2000/svg"
   xmlns:svg="http://www.w3.org/2000/svg">
  <defs
     id="defs1720" />
  <sodipodi:namedview
     id="namedview1718"
     pagecolor="#505050"
     bordercolor="#eeeeee"
     borderopacity="1"
     inkscape:showpageshadow="0"
     inkscape:pageopacity="0"
     inkscape:pagecheckerboard="0"
     inkscape:deskcolor="#505050"
     showgrid="false"
     inkscape:zoom="6.5390625"
     inkscape:cx="64.076464"
     inkscape:cy="64.076464"
     inkscape:window-width="1920"
     inkscape:window-height="1017"
     inkscape:window-x="-8"
     inkscape:window-y="-8"
     inkscape:window-maximized="1"
     inkscape:current-layer="svg1716" />
  <circle
     cx="100"
     cy="100"
     r="60"
     stroke-width="4"
     stroke="black"
     fill="rgb(0,94,171)"
     fill-opacity="1"
     id="circle1712" />
  <g
     aria-label="PC"
     id="text1714"
     style="font-weight:bold;font-size:42px;font-family:Arial;text-anchor:middle;stroke-width:4">
    <path
       d="M 73.883301,115 V 84.935547 h 9.741211 q 5.537109,0 7.21875,0.451172 2.583984,0.676758 4.327148,2.953125 1.743164,2.255859 1.743164,5.844726 0,2.768555 -1.004883,4.655274 -1.004882,1.886716 -2.563476,2.973636 -1.538086,1.0664 -3.137695,1.41504 -2.173829,0.43066 -6.295899,0.43066 H 79.953613 V 115 Z m 6.070312,-24.978516 v 8.53125 h 3.322266 q 3.588867,0 4.798828,-0.471679 1.209961,-0.47168 1.886719,-1.476563 0.697265,-1.004883 0.697265,-2.33789 0,-1.640625 -0.963867,-2.707032 -0.963867,-1.066406 -2.440429,-1.333008 -1.086915,-0.205078 -4.368165,-0.205078 z"
       id="path2233" />
    <path
       d="m 121.1333,103.94629 5.88574,1.86621 q -1.35351,4.92188 -4.51172,7.32129 -3.13769,2.37891 -7.97753,2.37891 -5.98829,0 -9.84375,-4.08106 -3.85547,-4.10156 -3.85547,-11.19726 0,-7.505864 3.87597,-11.648443 3.87598,-4.163085 10.19239,-4.163085 5.5166,0 8.96191,3.260742 2.05078,1.927734 3.07617,5.537109 l -6.00879,1.435547 q -0.5332,-2.337891 -2.23535,-3.691406 -1.68164,-1.353516 -4.10156,-1.353516 -3.34277,0 -5.43457,2.399414 -2.07129,2.399414 -2.07129,7.772461 0,5.701177 2.05078,8.121097 2.05078,2.41992 5.33203,2.41992 2.41992,0 4.16309,-1.53809 1.74316,-1.53808 2.50195,-4.83984 z"
       id="path2235" />
  </g>
</svg>
