<?xml version="1.0" encoding="UTF-8" standalone="no"?>
<svg
   version="1.2"
   width="128"
   height="128"
   viewBox="36 36 128 128"
   id="svg1589"
   sodipodi:docname="nPG.svg"
   inkscape:version="1.2 (dc2aedaf03, 2022-05-15)"
   xmlns:inkscape="http://www.inkscape.org/namespaces/inkscape"
   xmlns:sodipodi="http://sodipodi.sourceforge.net/DTD/sodipodi-0.dtd"
   xmlns="http://www.w3.org/2000/svg"
   xmlns:svg="http://www.w3.org/2000/svg">
  <defs
     id="defs1593" />
  <sodipodi:namedview
     id="namedview1591"
     pagecolor="#505050"
     bordercolor="#eeeeee"
     borderopacity="1"
     inkscape:showpageshadow="0"
     inkscape:pageopacity="0"
     inkscape:pagecheckerboard="0"
     inkscape:deskcolor="#505050"
     showgrid="false"
     inkscape:zoom="6.5390625"
     inkscape:cx="64.076464"
     inkscape:cy="64.076464"
     inkscape:window-width="1920"
     inkscape:window-height="1017"
     inkscape:window-x="-8"
     inkscape:window-y="-8"
     inkscape:window-maximized="1"
     inkscape:current-layer="svg1589" />
  <circle
     cx="100"
     cy="100"
     r="60"
     stroke-width="4"
     stroke="black"
     fill="rgb(0,94,171)"
     fill-opacity="1"
     id="circle1585" />
  <g
     aria-label="PG"
     id="text1587"
     style="font-weight:bold;font-size:42px;font-family:Arial;text-anchor:middle;stroke-width:4">
    <path
       d="M 72.714355,115 V 84.935547 h 9.741211 q 5.53711,0 7.21875,0.451172 2.583985,0.676758 4.327149,2.953125 1.743164,2.255859 1.743164,5.844726 0,2.768555 -1.004883,4.655274 -1.004883,1.886716 -2.563476,2.973636 -1.538086,1.0664 -3.137696,1.41504 -2.173828,0.43066 -6.295898,0.43066 H 78.784668 V 115 Z m 6.070313,-24.978516 v 8.53125 h 3.322266 q 3.588867,0 4.798828,-0.471679 1.209961,-0.47168 1.886718,-1.476563 0.697266,-1.004883 0.697266,-2.33789 0,-1.640625 -0.963867,-2.707032 -0.963867,-1.066406 -2.44043,-1.333008 -1.086914,-0.205078 -4.368164,-0.205078 z"
       id="path2197" />
    <path
       d="m 114.71436,103.94629 v -5.065431 h 13.08398 v 11.976561 q -1.90723,1.84571 -5.53711,3.26074 -3.60937,1.39454 -7.32129,1.39454 -4.7168,0 -8.22363,-1.96875 -3.50684,-1.98926 -5.27051,-5.66016 -1.763671,-3.69141 -1.763671,-8.018556 0,-4.696289 1.968751,-8.346679 1.96875,-3.650391 5.76269,-5.598633 2.89161,-1.49707 7.19825,-1.49707 5.59863,0 8.73632,2.358398 3.15821,2.337891 4.06055,6.480469 l -6.0293,1.127929 q -0.63574,-2.214843 -2.39941,-3.486328 -1.74316,-1.291992 -4.36816,-1.291992 -3.97852,0 -6.33692,2.522461 -2.33789,2.522461 -2.33789,7.485352 0,5.352539 2.37891,8.039059 2.3789,2.66602 6.23437,2.66602 1.90723,0 3.81446,-0.73828 1.92773,-0.75879 3.30175,-1.8252 v -3.81445 z"
       id="path2199" />
  </g>
</svg>
