<?xml version="1.0" encoding="UTF-8" standalone="no"?>
<svg
   version="1.2"
   width="256"
   height="256"
   viewBox="36 36 128 128"
   id="svg590"
   sodipodi:docname="TG.svg"
   inkscape:version="1.2 (dc2aedaf03, 2022-05-15)"
   xmlns:inkscape="http://www.inkscape.org/namespaces/inkscape"
   xmlns:sodipodi="http://sodipodi.sourceforge.net/DTD/sodipodi-0.dtd"
   xmlns="http://www.w3.org/2000/svg"
   xmlns:svg="http://www.w3.org/2000/svg">
  <defs
     id="defs594" />
  <sodipodi:namedview
     id="namedview592"
     pagecolor="#505050"
     bordercolor="#eeeeee"
     borderopacity="1"
     inkscape:showpageshadow="0"
     inkscape:pageopacity="0"
     inkscape:pagecheckerboard="0"
     inkscape:deskcolor="#505050"
     showgrid="false"
     inkscape:zoom="3.2695312"
     inkscape:cx="128.45878"
     inkscape:cy="128.45878"
     inkscape:window-width="1920"
     inkscape:window-height="1017"
     inkscape:window-x="-8"
     inkscape:window-y="-8"
     inkscape:window-maximized="1"
     inkscape:current-layer="svg590" />
  <circle
     cx="100"
     cy="100"
     r="60"
     stroke-width="4"
     stroke="black"
     fill="rgb(0,107,140)"
     fill-opacity="1"
     id="circle582"
     style="fill:#005eab;fill-opacity:1" />
  <path
     d="m 110,80 15,15 0,25 M 90,80 75,95 l 0,25"
     stroke-width="4"
     stroke="black"
     fill="none"
     id="path584" />
  <path
     d="m 100,80 -15,15 0,25 30,0 0,-25 -15,-15"
     stroke-width="4"
     stroke="black"
     fill="black"
     id="path586" />
  <g
     aria-label="TG"
     id="text588"
     style="font-weight:bold;font-size:30px;font-family:Arial;text-anchor:middle;stroke-width:4">
    <path
       d="m 86.186523,150 v -17.8418 h -6.37207 v -3.63281 h 17.06543 v 3.63281 H 90.522461 V 150 Z"
       id="path1256" />
    <path
       d="m 109.66797,142.10449 v -3.61816 h 9.3457 v 8.55469 q -1.3623,1.31835 -3.95508,2.3291 -2.57812,0.99609 -5.22949,0.99609 -3.36914,0 -5.87402,-1.40625 -2.50488,-1.4209 -3.76465,-4.04297 -1.259766,-2.63672 -1.259766,-5.72754 0,-3.35449 1.406246,-5.96191 1.40625,-2.60742 4.11622,-3.99902 2.06542,-1.06934 5.1416,-1.06934 3.99902,0 6.24023,1.68457 2.25586,1.66992 2.90039,4.62891 l -4.30664,0.80566 q -0.4541,-1.58203 -1.71387,-2.49023 -1.24511,-0.92286 -3.12011,-0.92286 -2.8418,0 -4.52637,1.80176 -1.66992,1.80176 -1.66992,5.34668 0,3.82324 1.69922,5.74219 1.69922,1.9043 4.45312,1.9043 1.36231,0 2.72461,-0.52735 1.37695,-0.54199 2.3584,-1.30371 v -2.72461 z"
       id="path1258" />
  </g>
</svg>
