<?xml version="1.0" encoding="UTF-8" standalone="no"?>
<svg
   version="1.2"
   width="256"
   height="256"
   viewBox="36 36 128 128"
   id="svg459"
   sodipodi:docname="TU.svg"
   inkscape:version="1.2 (dc2aedaf03, 2022-05-15)"
   xmlns:inkscape="http://www.inkscape.org/namespaces/inkscape"
   xmlns:sodipodi="http://sodipodi.sourceforge.net/DTD/sodipodi-0.dtd"
   xmlns="http://www.w3.org/2000/svg"
   xmlns:svg="http://www.w3.org/2000/svg">
  <defs
     id="defs463" />
  <sodipodi:namedview
     id="namedview461"
     pagecolor="#505050"
     bordercolor="#eeeeee"
     borderopacity="1"
     inkscape:showpageshadow="0"
     inkscape:pageopacity="0"
     inkscape:pagecheckerboard="0"
     inkscape:deskcolor="#505050"
     showgrid="false"
     inkscape:zoom="3.2695312"
     inkscape:cx="128.45878"
     inkscape:cy="128.45878"
     inkscape:window-width="1920"
     inkscape:window-height="1017"
     inkscape:window-x="-8"
     inkscape:window-y="-8"
     inkscape:window-maximized="1"
     inkscape:current-layer="svg459" />
  <circle
     cx="100"
     cy="100"
     r="60"
     stroke-width="4"
     stroke="black"
     fill="rgb(0,107,140)"
     fill-opacity="1"
     id="circle451"
     style="fill:#005eab;fill-opacity:1" />
  <path
     d="m 110,80 15,15 0,25 M 90,80 75,95 l 0,25"
     stroke-width="4"
     stroke="black"
     fill="none"
     id="path453" />
  <path
     d="m 100,80 -15,15 0,25 30,0 0,-25 -15,-15"
     stroke-width="4"
     stroke="black"
     fill="black"
     id="path455" />
  <g
     aria-label="TU"
     id="text457"
     style="font-weight:bold;font-size:30px;font-family:Arial;text-anchor:middle;stroke-width:4">
    <path
       d="m 87.021484,150 v -17.8418 h -6.37207 v -3.63281 h 17.06543 v 3.63281 H 91.357422 V 150 Z"
       id="path1270" />
    <path
       d="m 100.4834,128.52539 h 4.33594 v 11.63086 q 0,2.76855 0.16113,3.58887 0.27832,1.31836 1.31836,2.12402 1.05469,0.79102 2.87109,0.79102 1.84571,0 2.78321,-0.74707 0.9375,-0.76172 1.12792,-1.86036 0.19043,-1.09863 0.19043,-3.64746 v -11.87988 h 4.33594 v 11.2793 q 0,3.86718 -0.35156,5.46386 -0.35156,1.59668 -1.30371,2.69532 -0.9375,1.09863 -2.51953,1.75781 -1.58203,0.64453 -4.13086,0.64453 -3.07617,0 -4.67285,-0.70312 -1.58203,-0.71778 -2.50489,-1.84571 -0.92285,-1.14258 -1.21582,-2.38769 -0.4248,-1.84571 -0.4248,-5.44922 z"
       id="path1272" />
  </g>
</svg>
