<?xml version="1.0" encoding="UTF-8" standalone="no"?>
<svg
   version="1.2"
   width="158"
   height="108"
   viewBox="21 46 158 108"
   id="svg14"
   sodipodi:docname="10031000000000004600.svg"
   inkscape:version="1.1 (c68e22c387, 2021-05-23)"
   xmlns:inkscape="http://www.inkscape.org/namespaces/inkscape"
   xmlns:sodipodi="http://sodipodi.sourceforge.net/DTD/sodipodi-0.dtd"
   xmlns="http://www.w3.org/2000/svg"
   xmlns:svg="http://www.w3.org/2000/svg">
  <defs
     id="defs18" />
  <sodipodi:namedview
     id="namedview16"
     pagecolor="#ffffff"
     bordercolor="#666666"
     borderopacity="1.0"
     inkscape:pageshadow="2"
     inkscape:pageopacity="0.0"
     inkscape:pagecheckerboard="0"
     showgrid="false"
     inkscape:zoom="6.6962025"
     inkscape:cx="78.925331"
     inkscape:cy="53.985822"
     inkscape:window-width="1920"
     inkscape:window-height="1017"
     inkscape:window-x="-8"
     inkscape:window-y="-8"
     inkscape:window-maximized="1"
     inkscape:current-layer="svg14" />
  <path
     d="M25,50 l150,0 0,100 -150,0 z"
     stroke-width="4"
     stroke="black"
     fill="rgb(128,224,255)"
     fill-opacity="1"
     id="path2"
     style="fill:none" />
  <g
     transform="translate(0,-35)"
     stroke-width="4"
     stroke="black"
     fill="black"
     id="g12">
    <g
       transform="translate(40,40)"
       id="g10">
      <g
         transform="scale(0.6)"
         id="g8">
        <path
           d="m 105,85 c 0,2.8 -2.2,5 -5,5 -2.8,0 -5,-2.2 -5,-5 0,-2.8 2.2,-5 5,-5 2.8,0 5,2.2 5,5 z m -20,5 30,0 m -15,0 0,30"
           stroke-width="4"
           stroke="black"
           fill="none"
           id="path4" />
        <path
           d="M 82.3 102.6 C 82.3 113.9 84.2 115.9 84.2 115.9 L 86.5 114.1 C 90.2 117.8 94.8 120.8 99.9 120.9 L 100.5 120.9 L 101 120.9 C 106.2 120.8 110.8 117.8 114.4 114.1 L 116.7 115.9 C 116.7 115.9 118.6 113.9 118.7 102.6 C 113.9 106.8 108.9 109 108.9 109 L 110.9 110.7 C 110.9 110.7 106.8 115.2 100.5 115.2 L 100.5 115.2 C 100.5 115.2 100.4 115.2 100.4 115.2 C 94.2 115.2 90 110.7 90 110.7 L 92 109 C 92 109 87 106.8 82.3 102.6 z"
           stroke-width="4"
           stroke="none"
           fill="black"
           id="path6" />
      </g>
    </g>
  </g>
</svg>
