<?xml version="1.0" encoding="UTF-8" standalone="no"?>
<svg
   version="1.2"
   width="152"
   height="152"
   viewBox="24 24 152 152"
   id="svg838"
   sodipodi:docname="10061000000000004600.svg"
   inkscape:version="1.2 (dc2aedaf03, 2022-05-15)"
   xmlns:inkscape="http://www.inkscape.org/namespaces/inkscape"
   xmlns:sodipodi="http://sodipodi.sourceforge.net/DTD/sodipodi-0.dtd"
   xmlns="http://www.w3.org/2000/svg"
   xmlns:svg="http://www.w3.org/2000/svg">
  <defs
     id="defs842" />
  <sodipodi:namedview
     id="namedview840"
     pagecolor="#505050"
     bordercolor="#eeeeee"
     borderopacity="1"
     inkscape:showpageshadow="0"
     inkscape:pageopacity="0"
     inkscape:pagecheckerboard="0"
     inkscape:deskcolor="#505050"
     showgrid="false"
     inkscape:zoom="5.5065789"
     inkscape:cx="75.9092"
     inkscape:cy="76.0908"
     inkscape:window-width="1920"
     inkscape:window-height="1017"
     inkscape:window-x="-8"
     inkscape:window-y="-8"
     inkscape:window-maximized="1"
     inkscape:current-layer="svg838" />
  <path
     d="M 100,28 L172,100 100,172 28,100 100,28 Z"
     stroke-width="4"
     stroke="black"
     fill="rgb(255,128,128)"
     fill-opacity="1"
     id="path826"
     style="fill:none" />
  <g
     transform="translate(0,-35)"
     stroke-width="4"
     stroke="black"
     fill="black"
     id="g836">
    <g
       transform="translate(40,40)"
       id="g834">
      <g
         transform="scale(0.6)"
         id="g832">
        <path
           d="m 105,85 c 0,2.8 -2.2,5 -5,5 -2.8,0 -5,-2.2 -5,-5 0,-2.8 2.2,-5 5,-5 2.8,0 5,2.2 5,5 z m -20,5 30,0 m -15,0 0,30"
           stroke-width="4"
           stroke="black"
           fill="none"
           id="path828" />
        <path
           d="M 82.3 102.6 C 82.3 113.9 84.2 115.9 84.2 115.9 L 86.5 114.1 C 90.2 117.8 94.8 120.8 99.9 120.9 L 100.5 120.9 L 101 120.9 C 106.2 120.8 110.8 117.8 114.4 114.1 L 116.7 115.9 C 116.7 115.9 118.6 113.9 118.7 102.6 C 113.9 106.8 108.9 109 108.9 109 L 110.9 110.7 C 110.9 110.7 106.8 115.2 100.5 115.2 L 100.5 115.2 C 100.5 115.2 100.4 115.2 100.4 115.2 C 94.2 115.2 90 110.7 90 110.7 L 92 109 C 92 109 87 106.8 82.3 102.6 z"
           stroke-width="4"
           stroke="none"
           fill="black"
           id="path830" />
      </g>
    </g>
  </g>
</svg>
